<?xml version="1.0" encoding="utf-8"?>
<!-- Generator: Adobe Illustrator 13.0.0, SVG Export Plug-In . SVG Version: 6.00 Build 14948)  -->
<!DOCTYPE svg PUBLIC "-//W3C//DTD SVG 1.1//EN" "http://www.w3.org/Graphics/SVG/1.1/DTD/svg11.dtd">
<svg version="1.1" id="Layer_1" xmlns="http://www.w3.org/2000/svg" xmlns:xlink="http://www.w3.org/1999/xlink" x="0px" y="0px"
	 width="65px" height="65px" viewBox="0 0 65 65" enable-background="new 0 0 65 65" xml:space="preserve">
<g>
	<ellipse fill="#F3F3F3" cx="32.842" cy="57.354" rx="26.982" ry="6.835"/>
	<g>
		<path fill="#1DAA59" d="M51.614,20.842c0-5.249-2.189-9.982-5.699-13.348c-3.366-3.51-8.103-5.7-13.347-5.7
			c-10.219,0-18.498,8.283-18.498,18.5c0,4.192,1.395,8.057,3.748,11.16h-0.003l14.753,19.878l0.07-0.097l0.479,0.648l14.75-19.881
			h-0.003C50.218,28.9,51.614,25.035,51.614,20.842 M32.842,33.006c-6.955,0-12.589-5.524-12.589-12.341
			c0-6.816,5.634-12.342,12.589-12.342c6.953,0,12.589,5.526,12.589,12.342C45.431,27.481,39.795,33.006,32.842,33.006"/>
		<path fill="#0B6F3A" d="M32.842,8.323c-6.955,0-12.589,5.525-12.589,12.342c0,6.817,5.634,12.341,12.589,12.341
			c6.953,0,12.589-5.524,12.589-12.341C45.431,13.848,39.795,8.323,32.842,8.323 M32.842,29.889c-5.237,0-9.481-4.244-9.481-9.479
			c0-5.237,4.244-9.481,9.481-9.481s9.479,4.245,9.479,9.481C42.321,25.646,38.079,29.889,32.842,29.889"/>
	</g>
</g>
</svg>
